/* XPM */
static char *c05d9d2994904fa3d49825b4f3080117Ut7gzb2LXc7WNZfG[] = {
/* columns rows colors chars-per-pixel */
"50 50 26 1 ",
"  c black",
". c #2E1B2E",
"X c #2F1C2F",
"o c #301B30",
"O c #301C30",
"+ c gray18",
"@ c #322032",
"# c #352135",
"$ c #362636",
"% c #322A32",
"& c #322D32",
"* c #392C39",
"= c gray20",
"- c #3D333D",
"; c #3D363D",
": c #452E45",
"> c #4D2E4D",
", c #473347",
"< c #413C41",
"1 c #4C364C",
"2 c gray28",
"3 c #564056",
"4 c #524852",
"5 c #624E62",
"6 c #6A566A",
"7 c #735F73",
/* pixels */
"444...74447.......777777..44..........4777477.....",
"47447744774447447444774444444444444444777744444747",
"4777444777774444477444777777777477777777777777744.",
"4777777777777777777777777777777777777777777777774.",
"4777777777777777777777777777777777777777777777774.",
".477777777777777777777777777777777777777777777774.",
".477777777777777777777777777777777777777777777774.",
".477777777777777777777============774477777777774.",
".74777777777777777777=2222222======7444;;77777774.",
".4777777777777777772222222222222====7774;;7777744.",
"47777777777777777722222222222222+====7774;7777747.",
"4777777777777777722222222222222+ 2====77747777744.",
".47777777777777+22222222222222++  2===77774777744.",
".447777777777772  +++22222222222+ 2====7777777774.",
".7477777777777222+22222222222222+222===7777777774.",
".47777777777772222++222222222222+2222===7777777744",
".4777777777;;222222+222222222222222222==7777777744",
".4777744444442222222222222222222222222==7777777744",
".4777747777772222222222222222222222222==7777777744",
".4777747777772222222222222222222222222==7777777744",
".47777447777722222   22222 2222   2222==777777774.",
".47777777777722222 22 2222 2222 22 222==777777774.",
".47777777777722222   22222 2222   2222==777777774.",
".47777777777722222 2 22222 2222 222222==777777747.",
".47777777777722222 22 2222 2222 222222==777777744.",
".4477777777772222222222222222222222222==777777747.",
"74477777777772222222222222222222222222==777777747.",
"447777777777722++22222222222222+++22+2==777777747.",
"4447777777777++222222222222222222+  ++==777777747.",
"77477777777772222222222222222222+  222==7777777744",
".477777777777222222222222222222++22222==7777777744",
".4777777777772222222222222222222222222==777777774.",
".477777777775-<<<<222222222<<<<<<2222<&&577777774.",
".477777777535-<<2<<<22222--<<<<222<---&=567777774.",
".4777777751:O.OXXO<--<<-*--OOOOOO-*$-O.O#5557774..",
".477777777#.#.OO*OOO--*-<..@OOO--OO....%#,7567744.",
".47777777#oo......X.XXO..OO.........O....##557774.",
".477777777#............O2.................oO56774.",
".477777777...>>>>.............>>>>...>>>>..o,7747.",
".4777777753.>>...>>>>............>>.>>......,7747.",
".4477777#o##......>.>>............>>>>>....777744.",
".47777;;7##...............................5677774.",
".477777;;77##O#...........O55#.......O#...o#777744",
".477777;;;77757###......#55#o#77755#..oo#6#O,77774",
".47777777777777777755#...oo#7777777777777777777774",
".4777777777777777777777777777777777777777777777774",
".4477777777777777777777777777777777777777777777774",
".7477777777774777777777777777777777777777777777744",
".774777777777447777774444444444447777444777444474.",
"..74444444444.4444444477......7744444...444...444."
};
