/* XPM */
static char *ffc4d3fbf0c5425ce437aff1920cd9a6G7O66VdZQpmEa8cw[] = {
/* columns rows colors chars-per-pixel */
"50 50 5 1 ",
"  c #2E1B2E",
". c #3D363D",
"X c #524852",
"o c #735F73",
"O c #706470",
/* pixels */
"XXX   oXXXo       oooooo  XX          XoooXoo     ",
"XoXXooXXooXXXoXXoXXXooXXXXXXXXXXXXXXXXooooXXXXXoXo",
"XoooXXXoooooXXXXXooXXXoooooooooXoooooooooooooooXX ",
"XoooooooooooooooooooooooooooooooooooooooooooooooX ",
"XoooooooooooooooooooooooooooooooooooooooooooooooX ",
" XooooooooooooooooooooooooooooooooooooooooooooooX ",
" XooooooooooooooooooooooooooooooooooooooooooooooX ",
" XooooooooooooooooooooooooooooooooooXXooooooooooX ",
" oXoooooooooooooooooooooooooooooooooXXX..oooooooX ",
" XoooooooooooooooooooooooooooooooooooooX..oooooXX ",
"XoooooooooooooooooooooooooooooooooooooooX.oooooXo ",
"XooooooooooooooooooooooooooooooooooooooooXoooooXX ",
" XooooooooooooooXXooooooooooooooooooooooooXooooXX ",
" XXooooooooooooXXoooooooooooooooooooooooooooooooX ",
" oXooooooooooooXooooooooooooooooooooooooooooooooX ",
" Xoooooooooooo..ooooooooooooooooooooooooooooooooXX",
" Xooooooooo......oooooooooooooooooooooooooooooooXX",
" XooooXXXXXXXX...oooooooooooooooooooooooooooooooXX",
" XooooXooooooooo.XooooooooooooooooooooooooooooooXX",
" XooooXoooooooooooXoooooooooooooooooooooooooooooXX",
" XooooXXoooooooooooXXoooooooooooooooooooooooooooX ",
" XooooooooooooooooooXoooooooooooooooooooooooooooX ",
" XooooooooooooooooooooooooooooooooooooooooooooooX ",
" XoooooooooooooooooooooooooooooooooooooooooooooXo ",
" XoooooooooooooooooooooooooooooooooooooooooooooXX ",
" XXooooooooooooooooooooooooooooooooooooooooooooXo ",
"oXXooooooooooooooooooooooooooooooooooXXooooooooXo ",
"XXoooooooooooooooooooooooooooooooooooOOXoooooooXo ",
"XXXoooooooooooooooooooooooooooooooooXooooooooooXo ",
"ooXooooooooooooooooooooooooooooooooXooooooooooooXX",
" XoooooooooooooooooooooooooooooooooXooooooooooooXX",
" Xoooooooooooooooooooooooooooooooo.oooooooooooooX ",
" Xoooooooooooooooooooooooooooooo....ooooooooooooX ",
" Xooooooooooooooooooooooooooooo......oooooooooooX ",
" Xooooooooooooooooooooooooooooo.....oXoooooooooX  ",
" Xooooooooooooooooooooooooooooo.XoooooXXoooooooXX ",
" XooooooooooooooooooooooooXXXXXXXoooooooXoooooooX ",
" XooooooooooooooooooooooXXoooooooooooooooXooooooX ",
" XooooooooooooooooooooooXooooooooooooooooooooooXo ",
" XoooooooooooooooooooooooooooooooooooooooooooooXo ",
" XXooooooooooooooooooooooooooooooooooooooooooooXX ",
" Xoooo..ooooooooooooooooooooooooooooooooooooooooX ",
" Xooooo..oooooooooooooooooooooooooooooooooooooooXX",
" Xooooo...oooooooooooooooooooooooooooooooooooooooX",
" XoooooooooooooooooooooooooooooooooooooooooooooooX",
" XoooooooooooooooooooooooooooooooooooooooooooooooX",
" XXooooooooooooooooooooooooooooooooooooooooooooooX",
" oXooooooooooXooooooooooooooooooooooooooooooooooXX",
" ooXoooooooooXXooooooXXXXXXXXXXXXooooXXXoooXXXXoX ",
"  oXXXXXXXXXX XXXXXXXXoo      ooXXXXX   XXX   XXX "
};
