/* XPM */
static char *cc70ff6f5816495e8ac4a5dc4237504c7g0nu9QFBA26KwqF[] = {
/* columns rows colors chars-per-pixel */
"50 50 8 1 ",
"  c #2E1B2E",
". c #3D363D",
"X c #524852",
"o c #735F73",
"O c #706470",
"+ c gray66",
"@ c gray78",
"# c gray86",
/* pixels */
"XXX   oXXXo       oooooo  XX          XoooXoo     ",
"XoXXooXXooXXXoXXoXXXooXXXXXXXXXXXXXXXXooooXXXXXoXo",
"XoooXXXoooooXXXXXooXXXoooooooooXoooooooooooooooXX ",
"XoooooooooooooooooooooooooooooooooooooooooooooooX ",
"XoooooooooooooooooooooooooooooooooooooooooooooooX ",
" XooooooooooooooooooooooooooooooooooooooooooooooX ",
" XooooooooooooooooooooooooooooooooooooooooooooooX ",
" XooooooooooooooooooooooooooooooooooXXooooooooooX ",
" oXooooooooooooooooooooooooooo++++ooXXX..oooooooX ",
" Xoooooooooooooooooooooooooo#####++ooooX..oooooXX ",
"Xooooooooooooooooooooooooooo##@@@@+oooooX.oooooXo ",
"Xoooooooooooooooooooooooooo##@@@@@++oooooXoooooXX ",
" XooooooooooooooXXooooooooo#@@@@@@@+####ooXooooXX ",
" XXooooooooooooXXoooooooooo#@@@@@@@+#@@##+ooooooX ",
" oXooooooooooooXoooooooooooo@@@@@@@+@@@@#+ooooooX ",
" Xoooooooooooo..oooooooooooo@@@@@@@@@@@@@++oooooXX",
" Xooooooooo......ooooooooooo@@@@@@@@@@@@@@+oooooXX",
" XooooXXXXXXXX...ooooooooooo@@@@@@@@@@@@@@+oooooXX",
" XooooXooooooooo.Xooooooooo#@@@@@@@@@@@@@++oooooXX",
" XooooXoooooooooooXooooooo#@@@@@@@@@@@@@@@ooooooXX",
" XooooXXoooooooooooXXoooo#@@@@@@@@ooo@@@ooooooooX ",
" XooooooooooooooooooXoooo#@@@@@@@+ooooooooooooooX ",
" Xoooooooooooooooooooooo#@@@@@@@+oooooooooooooooX ",
" Xooooooooooooooooooooo#@@@@@@@+oooooooooooooooXo ",
" Xoooooooooooooooooooo#@@@@@@@@+oooooooooooooooXX ",
" XXoooooooooooooooooo#@@@@@@@@+ooooooooooooooooXo ",
"oXXooooooooooooooooo#@@@@@@@@+oooooooXXooooooooXo ",
"XXoooooooooooooooooo#@@@@@@@+ooooooooOOXoooooooXo ",
"XXXoooooooooooooooo#@@@@@@@+ooooooooXooooooooooXo ",
"ooXooooooooooooooo#@@@@@@@@+oooooooXooooooooooooXX",
" Xooooooooooo++++#@@@@@@@@+ooooooooXooooooooooooXX",
" Xoooooooooo++##++@@@@@@@+oooooooo.oooooooooooooX ",
" Xoooooooooo+#####@@@@++++oooooo....ooooooooooooX ",
" Xooooooooo@@@@@@@@@@++##++oooo......oooooooooooX ",
" Xooooooooo@@@@@@@@@@@#####+ooo.....oXoooooooooX  ",
" Xooooooooo@@@@@@@@@@@@@@@#+ooo.XoooooXXoooooooXX ",
" Xoooooooooo@@@@@@@@@@@@@@@@XXXXXoooooooXoooooooX ",
" Xoooooooooo@@@@@@@@@@@@@@@@oooooooooooooXooooooX ",
" Xoooooooooooo@@@ooo@@@@@@@ooooooooooooooooooooXo ",
" Xoooooooooooooooooo@@@@@@@ooooooooooooooooooooXo ",
" XXooooooooooooooooooo@@@ooooooooooooooooooooooXX ",
" Xoooo..ooooooooooooooooooooooooooooooooooooooooX ",
" Xooooo..oooooooooooooooooooooooooooooooooooooooXX",
" Xooooo...oooooooooooooooooooooooooooooooooooooooX",
" XoooooooooooooooooooooooooooooooooooooooooooooooX",
" XoooooooooooooooooooooooooooooooooooooooooooooooX",
" XXooooooooooooooooooooooooooooooooooooooooooooooX",
" oXooooooooooXooooooooooooooooooooooooooooooooooXX",
" ooXoooooooooXXooooooXXXXXXXXXXXXooooXXXoooXXXXoX ",
"  oXXXXXXXXXX XXXXXXXXoo      ooXXXXX   XXX   XXX "
};
