/* XPM */
static char *_f3c6c9da4bf406b809f95d4ed9f6aa5Nk873ElE2XTEQOzH[] = {
/* columns rows colors chars-per-pixel */
"50 50 10 1 ",
"  c black",
". c #2E1B2E",
"X c #3D363D",
"o c #4D0219",
"O c #660322",
"+ c #524852",
"@ c #735F73",
"# c #706470",
"$ c #8A062F",
"% c white",
/* pixels */
"+++...@+++@.......@@@@@@..++..........+@@@+@@.....",
"+@++@@++@@+++@++@+++@@++++++++++++++++@@@@+++++@+@",
"+@@@+++@@@@@+++++@@+++@@@@@@@@@+@@@@@@@@@@@@@@@++.",
"+@@@@@@@@@@@@@@@@@@@@@@@@@@@@@@@@@@@@@@@@@@@@@@@+.",
"+@@@@@@@@@@@@@@@@@@@@@@@@@@@@@@@@@@@@@@@@@@@@@@@+.",
".+@@@@@@@@@@@@@@@@oooooooooooo@@@@@@@@@@@@@@@@@@+.",
".+@@@@@@@@@@@@@@oooO$$$$$$$$$oo@@@@@@@@@@@@@@@@@+.",
".+@@@@@@@@@@@@oooOOO$$$$$$$$$$$oo@@@++@@@@@@@@@@+.",
".@+@@@@@@@@@@ooOOO$$$$$$$$$$$$$$oo@@+++XX@@@@@@@+.",
".+@@@@@@@@@@ooO$$$$$$$$$$$$$$$$$$o@@@@@+XX@@@@@++.",
"+@@@@@@@@@@@oOO$$$$$$$$oooooo$$$$$o@@@@@+X@@@@@+@.",
"+@@@@@@@@@@oO$$$$$$$ooo     oo$$$$oo@@@@@+@@@@@++.",
".+@@@@@@@@@oO$$$$$$oo        oo$$$$o@@@@@@+@@@@++.",
".++@@@@@@@oOO$$$$$$o           o$$$o@@@@@@@@@@@@+.",
".@+@@@@@@@oOO$$$$$o            o$$$o@@@@@@@@@@@@+.",
".+@@@@@@@@oO$$$$$oo            oo$$o@@@@@@@@@@@@++",
".+@@@@@@@ooO$$$$$o    %%   %%   o$$o@@@@@@@@@@@@++",
".+@@@@+++oOO$$$$$o    %%   %%   o$$o@@@@@@@@@@@@++",
".+@@@@+@@oOOOOOO$o    %%   %%   o$$o@@@@@@@@@@@@++",
".+@@@@+@@oOOOOoO$$o            o$$oo@@@@@@@@@@@@++",
".+@@@@++@oOOOOoO$$o            oOOo@@@@@@@@@@@@@+.",
".+@@@@@@@ooOOooOO$Oo          oOOoo@@@@@@@@@@@@@+.",
".+@@@@@@@@ooooooOOOOoo       ooOOo@@@@@@@@@@@@@@+.",
".+@@@@@@@@@oo@@oooOOOOoo    ooOOoo@@@@@@@@@@@@@+@.",
".+@@@@@@@@@@@@@@@ooooOOooooooOOoo@@@@@@@@@@@@@@++.",
".++@@@@@@@@@@@@@@@ooOOO$oo$$$Ooo@@@@@@@@@@@@@@@+@.",
"@++@@@@@@@@@@@@@@ooOO$$$$$$$$$$oo@@@@++@@@@@@@@+@.",
"++@@@@@@@@@@@@@@@oOO$$$$$$$$$$$$oo@@@##+@@@@@@@+@.",
"+++@@@@@@@@@@@@@ooO$$$$$$$$$$$$$$oo@+@@@@@@@@@@+@.",
"@@+@@@@@@@@@@@@ooOO$$$$$$$$$$$$$$$o+@@@@@@@@@@@@++",
".+@@@@@@@@@@@@@oOO$$$$$$$$$$$$$$$$o+@@@@@@@@@@@@++",
".+@@@@@@@@@@@@ooO$$$$$$$$$$$$$$$$$oo@@@@@@@@@@@@+.",
".+@@@@@@@@@@@@oOO$$$$$$$$$$$$$$$$$$o@@@@@@@@@@@@+.",
".+@@@@@@@@@@@@oO$$$$$$$$$O$$$$$$$$OoX@@@@@@@@@@@+.",
".+@@@@@@@@@@@@oO$$$$$$$$OOO$$$$$$$Oo@+@@@@@@@@@+..",
".+@@@@@@@@@@@ooO$$$$$$$OOo $$$$$$$Oo@@++@@@@@@@++.",
".+@@@@@@@@@@@oOOO$$$$$$OooOO$$$$$$Oo@@@@+@@@@@@@+.",
".+@@@@@@@@@@@oOOO$$O$$OOo oOO$$$$OOoo@@@@+@@@@@@+.",
".+@@@@@@@@@@@oOOOOOOOOOo  oOOOOOOOOOo@@@@@@@@@@+@.",
".+@@@@@@@@@@@oOOOOOOOOoo  ooOOOOOOOoo@@@@@@@@@@+@.",
".++@@@@@@@@@@oOOOOOOOOo    ooOOOOOOo@@@@@@@@@@@++.",
".+@@@@XX@@@@@oOOOOOOOoo     oOOOOOoo@@@@@@@@@@@@+.",
".+@@@@@XX@@@@oOOOOOOoo   @@  ooOooo@@@@@@@@@@@@@++",
".+@@@@@XXX@@@ooOOOoo    @@@@  ooo@@@@@@@@@@@@@@@@+",
".+@@@@@@@@@@@@ooooo   @@@@@@@  @@@@@@@@@@@@@@@@@@+",
".+@@@@@@@@@@@@@@@@@@  @@@@@@@  @@@@@@@@@@@@@@@@@@+",
".++@@@@@@@@@@@@@@@@@  @@@@@@@  @@@@@@@@@@@@@@@@@@+",
".@+@@@@@@@@@@+@@@@@@  @@@@@@@  @@@@@@@@@@@@@@@@@++",
".@@+@@@@@@@@@++@@@@@@++++++++++++@@@@+++@@@++++@+.",
"..@++++++++++.++++++++@@......@@+++++...+++...+++."
};
