/* XPM */
static char *_8b3cc62fc164d14b6694f48835fd6f9FBBLvMzxb3MvBQwn[] = {
/* columns rows colors chars-per-pixel */
"50 50 3 1 ",
"  c #1A111A",
". c #2E1B2E",
"X c #3D253D",
/* pixels */
"..................................................",
"..................................................",
"..................................................",
"..................................................",
"..................................................",
".....................................      .......",
"...................................   XXXXX    ...",
".................................. XXXX...XXXX  ..",
".............................     XX........... ..",
"..........................    XXXX................",
"......................... ........................",
"..................................................",
"..................................................",
"..................................................",
"..................................................",
"..................................................",
"..................................................",
"..................................................",
"..................................................",
"..................................................",
"..................................................",
".....         ....................................",
"....  XXXXXXX   ..................................",
"......X.....XXX  .................................",
"................  ................................",
".................           ......................",
"..................XXXXXXXXXX  ....................",
".............................  ...................",
".............................. ...................",
"..................................................",
"..................................................",
"..................................................",
"..................................................",
"..................................................",
"..................................................",
"..................................................",
"..................................................",
"..................................................",
"..................................................",
"..................................................",
"..................................................",
"..................................................",
"....................         .....................",
"..................  XXXXXXXXX          ...........",
"................  XXX...........  XXXX   .........",
"................ ................XX...............",
"..................................................",
"..................................................",
"..................................................",
".................................................."
};
